<?xml version="1.0" encoding="UTF-8" standalone="no"?>
<!DOCTYPE svg PUBLIC "-//W3C//DTD SVG 1.1//EN"
 "http://www.w3.org/Graphics/SVG/1.1/DTD/svg11.dtd">
<!-- Generated by graphviz version 2.43.0 (0)
 -->
<!-- Title: structs Pages: 1 -->
<svg width="773pt" height="335pt"
 viewBox="0.00 0.00 773.00 335.00" xmlns="http://www.w3.org/2000/svg" xmlns:xlink="http://www.w3.org/1999/xlink">
<g id="graph0" class="graph" transform="scale(1 1) rotate(0) translate(4 331)">
<title>structs</title>
<polygon fill="white" stroke="transparent" points="-4,4 -4,-331 769,-331 769,4 -4,4"/>
<!-- el0 -->
<g id="node1" class="node">
<title>el0</title>
<polygon fill="none" stroke="black" points="387,-280.5 387,-326.5 722,-326.5 722,-280.5 387,-280.5"/>
<text text-anchor="middle" x="554.5" y="-311.3" font-family="Times,serif" font-size="14.00">a</text>
<polyline fill="none" stroke="black" points="387,-303.5 722,-303.5 "/>
<text text-anchor="middle" x="554.5" y="-288.3" font-family="Times,serif" font-size="14.00">val: 1804289383,846930886,1681692777,...</text>
</g>
<!-- el2 -->
<g id="node3" class="node">
<title>el2</title>
<polygon fill="red" stroke="black" points="226,-182.5 226,-228.5 561,-228.5 561,-182.5 226,-182.5"/>
<text text-anchor="middle" x="393.5" y="-213.3" font-family="Times,serif" font-size="14.00">ANON #1</text>
<polyline fill="none" stroke="black" points="226,-205.5 561,-205.5 "/>
<text text-anchor="middle" x="393.5" y="-190.3" font-family="Times,serif" font-size="14.00">val: 1804289383,846930886,1681692777,...</text>
</g>
<!-- el0&#45;&gt;el2 -->
<g id="edge1" class="edge">
<title>el0&#45;&gt;el2</title>
<path fill="none" stroke="red" stroke-width="2" d="M517.56,-280.48C494.33,-266.62 464.17,-248.64 439.4,-233.87"/>
<polygon fill="red" stroke="red" stroke-width="2" points="440.92,-230.7 430.54,-228.59 437.34,-236.72 440.92,-230.7"/>
<text text-anchor="middle" x="505" y="-250.8" font-family="Times,serif" font-size="14.00">COPY</text>
</g>
<!-- el3 -->
<g id="node4" class="node">
<title>el3</title>
<ellipse fill="#cfe8ff" stroke="black" cx="606.5" cy="-205.5" rx="27" ry="18"/>
<text text-anchor="middle" x="606.5" y="-201.8" font-family="Times,serif" font-size="14.00">=</text>
</g>
<!-- el0&#45;&gt;el3 -->
<g id="edge2" class="edge">
<title>el0&#45;&gt;el3</title>
<path fill="none" stroke="black" d="M566.56,-280.23C574.46,-265.65 584.8,-246.56 592.98,-231.46"/>
<polygon fill="black" stroke="black" points="596.07,-233.11 597.75,-222.65 589.91,-229.78 596.07,-233.11"/>
<text text-anchor="middle" x="627.5" y="-250.8" font-family="Times,serif" font-size="14.00">left operand</text>
</g>
<!-- el1 -->
<g id="node2" class="node">
<title>el1</title>
<polygon fill="none" stroke="black" points="0,-280.5 0,-326.5 317,-326.5 317,-280.5 0,-280.5"/>
<text text-anchor="middle" x="158.5" y="-311.3" font-family="Times,serif" font-size="14.00">b</text>
<polyline fill="none" stroke="black" points="0,-303.5 317,-303.5 "/>
<text text-anchor="middle" x="158.5" y="-288.3" font-family="Times,serif" font-size="14.00">val: 388450127,915736906,101072999,...</text>
</g>
<!-- el1&#45;&gt;el3 -->
<g id="edge3" class="edge">
<title>el1&#45;&gt;el3</title>
<path fill="none" stroke="red" d="M200,-280.49C224.93,-268.36 257.7,-254.33 288.5,-247 410.68,-217.93 450.94,-267.45 570.5,-229 573.9,-227.91 577.3,-226.42 580.59,-224.73"/>
<polygon fill="red" stroke="red" points="582.54,-227.64 589.42,-219.58 579.02,-221.59 582.54,-227.64"/>
<text text-anchor="middle" x="374.5" y="-250.8" font-family="Times,serif" font-size="14.00">right operand (COPY!!!)</text>
</g>
<!-- el5 -->
<g id="node6" class="node">
<title>el5</title>
<ellipse fill="#cfe8ff" stroke="black" cx="196.5" cy="-107.5" rx="27" ry="18"/>
<text text-anchor="middle" x="196.5" y="-103.8" font-family="Times,serif" font-size="14.00">=</text>
</g>
<!-- el1&#45;&gt;el5 -->
<g id="edge5" class="edge">
<title>el1&#45;&gt;el5</title>
<path fill="none" stroke="black" d="M144.91,-280.2C131.74,-255.61 115.53,-215.12 128.5,-182 137.03,-160.22 155.38,-141.03 170.87,-127.73"/>
<polygon fill="black" stroke="black" points="173.15,-130.38 178.64,-121.32 168.69,-124.98 173.15,-130.38"/>
<text text-anchor="middle" x="172.5" y="-201.8" font-family="Times,serif" font-size="14.00">left operand</text>
</g>
<!-- el2&#45;&gt;el5 -->
<g id="edge6" class="edge">
<title>el2&#45;&gt;el5</title>
<path fill="none" stroke="red" d="M348.3,-182.48C310.98,-164.29 259.04,-138.98 226.62,-123.18"/>
<polygon fill="red" stroke="red" points="228.15,-120.03 217.62,-118.79 225.08,-126.32 228.15,-120.03"/>
<text text-anchor="middle" x="393.5" y="-152.8" font-family="Times,serif" font-size="14.00">right operand (COPY!!!)</text>
</g>
<!-- el4 -->
<g id="node5" class="node">
<title>el4</title>
<polygon fill="none" stroke="black" points="448,-84.5 448,-130.5 765,-130.5 765,-84.5 448,-84.5"/>
<text text-anchor="middle" x="606.5" y="-115.3" font-family="Times,serif" font-size="14.00">a</text>
<polyline fill="none" stroke="black" points="448,-107.5 765,-107.5 "/>
<text text-anchor="middle" x="606.5" y="-92.3" font-family="Times,serif" font-size="14.00">val: 388450127,915736906,101072999,...</text>
</g>
<!-- el3&#45;&gt;el4 -->
<g id="edge4" class="edge">
<title>el3&#45;&gt;el4</title>
<path fill="none" stroke="black" d="M606.5,-187.34C606.5,-174.45 606.5,-156.43 606.5,-140.87"/>
<polygon fill="black" stroke="black" points="610,-140.58 606.5,-130.58 603,-140.58 610,-140.58"/>
</g>
<!-- el6 -->
<g id="node7" class="node">
<title>el6</title>
<polygon fill="none" stroke="black" points="29,-0.5 29,-46.5 364,-46.5 364,-0.5 29,-0.5"/>
<text text-anchor="middle" x="196.5" y="-31.3" font-family="Times,serif" font-size="14.00">b</text>
<polyline fill="none" stroke="black" points="29,-23.5 364,-23.5 "/>
<text text-anchor="middle" x="196.5" y="-8.3" font-family="Times,serif" font-size="14.00">val: 1804289383,846930886,1681692777,...</text>
</g>
<!-- el5&#45;&gt;el6 -->
<g id="edge7" class="edge">
<title>el5&#45;&gt;el6</title>
<path fill="none" stroke="black" d="M196.5,-89.11C196.5,-79.7 196.5,-67.78 196.5,-56.75"/>
<polygon fill="black" stroke="black" points="200,-56.56 196.5,-46.56 193,-56.56 200,-56.56"/>
</g>
</g>
</svg>
