<?xml version="1.0" encoding="UTF-8" standalone="no"?>
<!DOCTYPE svg PUBLIC "-//W3C//DTD SVG 1.1//EN"
 "http://www.w3.org/Graphics/SVG/1.1/DTD/svg11.dtd">
<!-- Generated by graphviz version 2.43.0 (0)
 -->
<!-- Title: structs Pages: 1 -->
<svg width="958pt" height="251pt"
 viewBox="0.00 0.00 958.00 251.00" xmlns="http://www.w3.org/2000/svg" xmlns:xlink="http://www.w3.org/1999/xlink">
<g id="graph0" class="graph" transform="scale(1 1) rotate(0) translate(4 247)">
<title>structs</title>
<polygon fill="white" stroke="transparent" points="-4,4 -4,-247 954,-247 954,4 -4,4"/>
<!-- el0 -->
<g id="node1" class="node">
<title>el0</title>
<polygon fill="none" stroke="black" points="0,-196.5 0,-242.5 224,-242.5 224,-196.5 0,-196.5"/>
<text text-anchor="middle" x="112" y="-227.3" font-family="Times,serif" font-size="14.00">b</text>
<polyline fill="none" stroke="black" points="0,-219.5 224,-219.5 "/>
<text text-anchor="middle" x="112" y="-204.3" font-family="Times,serif" font-size="14.00">val: ptr = 106927505801280</text>
</g>
<!-- el1 -->
<g id="node2" class="node">
<title>el1</title>
<polygon fill="red" stroke="black" points="0,-98.5 0,-144.5 224,-144.5 224,-98.5 0,-98.5"/>
<text text-anchor="middle" x="112" y="-129.3" font-family="Times,serif" font-size="14.00">ANON #1</text>
<polyline fill="none" stroke="black" points="0,-121.5 224,-121.5 "/>
<text text-anchor="middle" x="112" y="-106.3" font-family="Times,serif" font-size="14.00">val: ptr = 106927505801280</text>
</g>
<!-- el0&#45;&gt;el1 -->
<g id="edge1" class="edge">
<title>el0&#45;&gt;el1</title>
<path fill="none" stroke="green" d="M112,-196.23C112,-184 112,-168.59 112,-155.03"/>
<polygon fill="green" stroke="green" points="115.5,-154.64 112,-144.64 108.5,-154.64 115.5,-154.64"/>
<text text-anchor="middle" x="131.5" y="-166.8" font-family="Times,serif" font-size="14.00">move</text>
</g>
<!-- el2 -->
<g id="node3" class="node">
<title>el2</title>
<polygon fill="none" stroke="black" points="0,-0.5 0,-46.5 224,-46.5 224,-0.5 0,-0.5"/>
<text text-anchor="middle" x="112" y="-31.3" font-family="Times,serif" font-size="14.00">a</text>
<polyline fill="none" stroke="black" points="0,-23.5 224,-23.5 "/>
<text text-anchor="middle" x="112" y="-8.3" font-family="Times,serif" font-size="14.00">val: ptr = 106927505801280</text>
</g>
<!-- el1&#45;&gt;el2 -->
<g id="edge2" class="edge">
<title>el1&#45;&gt;el2</title>
<path fill="none" stroke="green" d="M112,-98.23C112,-86 112,-70.59 112,-57.03"/>
<polygon fill="green" stroke="green" points="115.5,-56.64 112,-46.64 108.5,-56.64 115.5,-56.64"/>
<text text-anchor="middle" x="131.5" y="-68.8" font-family="Times,serif" font-size="14.00">move</text>
</g>
<!-- el3 -->
<g id="node4" class="node">
<title>el3</title>
<polygon fill="none" stroke="black" points="242,-196.5 242,-242.5 466,-242.5 466,-196.5 242,-196.5"/>
<text text-anchor="middle" x="354" y="-227.3" font-family="Times,serif" font-size="14.00">b1</text>
<polyline fill="none" stroke="black" points="242,-219.5 466,-219.5 "/>
<text text-anchor="middle" x="354" y="-204.3" font-family="Times,serif" font-size="14.00">val: ptr = 106927505801792</text>
</g>
<!-- el4 -->
<g id="node5" class="node">
<title>el4</title>
<polygon fill="red" stroke="black" points="242,-98.5 242,-144.5 466,-144.5 466,-98.5 242,-98.5"/>
<text text-anchor="middle" x="354" y="-129.3" font-family="Times,serif" font-size="14.00">ANON #2</text>
<polyline fill="none" stroke="black" points="242,-121.5 466,-121.5 "/>
<text text-anchor="middle" x="354" y="-106.3" font-family="Times,serif" font-size="14.00">val: ptr = 106927505802304</text>
</g>
<!-- el3&#45;&gt;el4 -->
<g id="edge3" class="edge">
<title>el3&#45;&gt;el4</title>
<path fill="none" stroke="red" stroke-width="2" d="M354,-196.23C354,-184 354,-168.59 354,-155.03"/>
<polygon fill="red" stroke="red" stroke-width="2" points="357.5,-154.64 354,-144.64 350.5,-154.64 357.5,-154.64"/>
<text text-anchor="middle" x="374.5" y="-166.8" font-family="Times,serif" font-size="14.00">COPY</text>
</g>
<!-- el5 -->
<g id="node6" class="node">
<title>el5</title>
<polygon fill="none" stroke="black" points="242,-0.5 242,-46.5 466,-46.5 466,-0.5 242,-0.5"/>
<text text-anchor="middle" x="354" y="-31.3" font-family="Times,serif" font-size="14.00">b2</text>
<polyline fill="none" stroke="black" points="242,-23.5 466,-23.5 "/>
<text text-anchor="middle" x="354" y="-8.3" font-family="Times,serif" font-size="14.00">val: ptr = 106927505802304</text>
</g>
<!-- el4&#45;&gt;el5 -->
<g id="edge4" class="edge">
<title>el4&#45;&gt;el5</title>
<path fill="none" stroke="green" d="M354,-98.23C354,-86 354,-70.59 354,-57.03"/>
<polygon fill="green" stroke="green" points="357.5,-56.64 354,-46.64 350.5,-56.64 357.5,-56.64"/>
<text text-anchor="middle" x="373.5" y="-68.8" font-family="Times,serif" font-size="14.00">move</text>
</g>
<!-- el6 -->
<g id="node7" class="node">
<title>el6</title>
<polygon fill="red" stroke="black" points="484,-196.5 484,-242.5 708,-242.5 708,-196.5 484,-196.5"/>
<text text-anchor="middle" x="596" y="-227.3" font-family="Times,serif" font-size="14.00">ANON #3</text>
<polyline fill="none" stroke="black" points="484,-219.5 708,-219.5 "/>
<text text-anchor="middle" x="596" y="-204.3" font-family="Times,serif" font-size="14.00">val: ptr = 106927505802816</text>
</g>
<!-- el7 -->
<g id="node8" class="node">
<title>el7</title>
<polygon fill="none" stroke="black" points="484,-98.5 484,-144.5 708,-144.5 708,-98.5 484,-98.5"/>
<text text-anchor="middle" x="596" y="-129.3" font-family="Times,serif" font-size="14.00">b3</text>
<polyline fill="none" stroke="black" points="484,-121.5 708,-121.5 "/>
<text text-anchor="middle" x="596" y="-106.3" font-family="Times,serif" font-size="14.00">val: ptr = 106927505802816</text>
</g>
<!-- el6&#45;&gt;el7 -->
<g id="edge5" class="edge">
<title>el6&#45;&gt;el7</title>
<path fill="none" stroke="green" d="M596,-196.23C596,-184 596,-168.59 596,-155.03"/>
<polygon fill="green" stroke="green" points="599.5,-154.64 596,-144.64 592.5,-154.64 599.5,-154.64"/>
<text text-anchor="middle" x="615.5" y="-166.8" font-family="Times,serif" font-size="14.00">move</text>
</g>
<!-- el8 -->
<g id="node9" class="node">
<title>el8</title>
<polygon fill="none" stroke="black" points="726,-196.5 726,-242.5 950,-242.5 950,-196.5 726,-196.5"/>
<text text-anchor="middle" x="838" y="-227.3" font-family="Times,serif" font-size="14.00">b4</text>
<polyline fill="none" stroke="black" points="726,-219.5 950,-219.5 "/>
<text text-anchor="middle" x="838" y="-204.3" font-family="Times,serif" font-size="14.00">val: ptr = 106927505803328</text>
</g>
</g>
</svg>
