<?xml version="1.0" encoding="UTF-8" standalone="no"?>
<!DOCTYPE svg PUBLIC "-//W3C//DTD SVG 1.1//EN"
 "http://www.w3.org/Graphics/SVG/1.1/DTD/svg11.dtd">
<!-- Generated by graphviz version 2.43.0 (0)
 -->
<!-- Title: structs Pages: 1 -->
<svg width="763pt" height="335pt"
 viewBox="0.00 0.00 763.00 335.00" xmlns="http://www.w3.org/2000/svg" xmlns:xlink="http://www.w3.org/1999/xlink">
<g id="graph0" class="graph" transform="scale(1 1) rotate(0) translate(4 331)">
<title>structs</title>
<polygon fill="white" stroke="transparent" points="-4,4 -4,-331 759,-331 759,4 -4,4"/>
<!-- el0 -->
<g id="node1" class="node">
<title>el0</title>
<polygon fill="none" stroke="black" points="382,-280.5 382,-326.5 717,-326.5 717,-280.5 382,-280.5"/>
<text text-anchor="middle" x="549.5" y="-311.3" font-family="Times,serif" font-size="14.00">a</text>
<polyline fill="none" stroke="black" points="382,-303.5 717,-303.5 "/>
<text text-anchor="middle" x="549.5" y="-288.3" font-family="Times,serif" font-size="14.00">val: 1804289383,846930886,1681692777,...</text>
</g>
<!-- el2 -->
<g id="node3" class="node">
<title>el2</title>
<polygon fill="red" stroke="black" points="216,-182.5 216,-228.5 551,-228.5 551,-182.5 216,-182.5"/>
<text text-anchor="middle" x="383.5" y="-213.3" font-family="Times,serif" font-size="14.00">ANON #1</text>
<polyline fill="none" stroke="black" points="216,-205.5 551,-205.5 "/>
<text text-anchor="middle" x="383.5" y="-190.3" font-family="Times,serif" font-size="14.00">val: 1804289383,846930886,1681692777,...</text>
</g>
<!-- el0&#45;&gt;el2 -->
<g id="edge1" class="edge">
<title>el0&#45;&gt;el2</title>
<path fill="none" stroke="green" d="M511.42,-280.48C487.36,-266.56 456.09,-248.48 430.49,-233.68"/>
<polygon fill="green" stroke="green" points="432.1,-230.56 421.69,-228.59 428.6,-236.62 432.1,-230.56"/>
<text text-anchor="middle" x="496" y="-250.8" font-family="Times,serif" font-size="14.00">move</text>
</g>
<!-- el3 -->
<g id="node4" class="node">
<title>el3</title>
<ellipse fill="#cfe8ff" stroke="black" cx="596.5" cy="-205.5" rx="27" ry="18"/>
<text text-anchor="middle" x="596.5" y="-201.8" font-family="Times,serif" font-size="14.00">=</text>
</g>
<!-- el0&#45;&gt;el3 -->
<g id="edge2" class="edge">
<title>el0&#45;&gt;el3</title>
<path fill="none" stroke="black" d="M560.4,-280.23C567.43,-265.88 576.6,-247.16 583.93,-232.17"/>
<polygon fill="black" stroke="black" points="587.19,-233.47 588.45,-222.95 580.91,-230.39 587.19,-233.47"/>
<text text-anchor="middle" x="619.5" y="-250.8" font-family="Times,serif" font-size="14.00">left operand</text>
</g>
<!-- el1 -->
<g id="node2" class="node">
<title>el1</title>
<polygon fill="none" stroke="black" points="0,-280.5 0,-326.5 317,-326.5 317,-280.5 0,-280.5"/>
<text text-anchor="middle" x="158.5" y="-311.3" font-family="Times,serif" font-size="14.00">b</text>
<polyline fill="none" stroke="black" points="0,-303.5 317,-303.5 "/>
<text text-anchor="middle" x="158.5" y="-288.3" font-family="Times,serif" font-size="14.00">val: 388450127,915736906,101072999,...</text>
</g>
<!-- el1&#45;&gt;el3 -->
<g id="edge3" class="edge">
<title>el1&#45;&gt;el3</title>
<path fill="none" stroke="green" d="M204.73,-280.46C232.2,-268.42 268.1,-254.46 301.5,-247 414.11,-221.84 450.75,-264.64 560.5,-229 563.9,-227.9 567.3,-226.4 570.58,-224.71"/>
<polygon fill="green" stroke="green" points="572.54,-227.62 579.41,-219.56 569.01,-221.57 572.54,-227.62"/>
<text text-anchor="middle" x="377.5" y="-250.8" font-family="Times,serif" font-size="14.00">right operand (move)</text>
</g>
<!-- el5 -->
<g id="node6" class="node">
<title>el5</title>
<ellipse fill="#cfe8ff" stroke="black" cx="186.5" cy="-107.5" rx="27" ry="18"/>
<text text-anchor="middle" x="186.5" y="-103.8" font-family="Times,serif" font-size="14.00">=</text>
</g>
<!-- el1&#45;&gt;el5 -->
<g id="edge5" class="edge">
<title>el1&#45;&gt;el5</title>
<path fill="none" stroke="black" d="M141.9,-280.48C125.69,-256.13 105.24,-215.87 118.5,-182 127.03,-160.22 145.38,-141.03 160.87,-127.73"/>
<polygon fill="black" stroke="black" points="163.15,-130.38 168.64,-121.32 158.69,-124.98 163.15,-130.38"/>
<text text-anchor="middle" x="162.5" y="-201.8" font-family="Times,serif" font-size="14.00">left operand</text>
</g>
<!-- el2&#45;&gt;el5 -->
<g id="edge6" class="edge">
<title>el2&#45;&gt;el5</title>
<path fill="none" stroke="green" d="M338.3,-182.48C300.98,-164.29 249.04,-138.98 216.62,-123.18"/>
<polygon fill="green" stroke="green" points="218.15,-120.03 207.62,-118.79 215.08,-126.32 218.15,-120.03"/>
<text text-anchor="middle" x="373.5" y="-152.8" font-family="Times,serif" font-size="14.00">right operand (move)</text>
</g>
<!-- el4 -->
<g id="node5" class="node">
<title>el4</title>
<polygon fill="none" stroke="black" points="438,-84.5 438,-130.5 755,-130.5 755,-84.5 438,-84.5"/>
<text text-anchor="middle" x="596.5" y="-115.3" font-family="Times,serif" font-size="14.00">a</text>
<polyline fill="none" stroke="black" points="438,-107.5 755,-107.5 "/>
<text text-anchor="middle" x="596.5" y="-92.3" font-family="Times,serif" font-size="14.00">val: 388450127,915736906,101072999,...</text>
</g>
<!-- el3&#45;&gt;el4 -->
<g id="edge4" class="edge">
<title>el3&#45;&gt;el4</title>
<path fill="none" stroke="black" d="M596.5,-187.34C596.5,-174.45 596.5,-156.43 596.5,-140.87"/>
<polygon fill="black" stroke="black" points="600,-140.58 596.5,-130.58 593,-140.58 600,-140.58"/>
</g>
<!-- el6 -->
<g id="node7" class="node">
<title>el6</title>
<polygon fill="none" stroke="black" points="19,-0.5 19,-46.5 354,-46.5 354,-0.5 19,-0.5"/>
<text text-anchor="middle" x="186.5" y="-31.3" font-family="Times,serif" font-size="14.00">b</text>
<polyline fill="none" stroke="black" points="19,-23.5 354,-23.5 "/>
<text text-anchor="middle" x="186.5" y="-8.3" font-family="Times,serif" font-size="14.00">val: 1804289383,846930886,1681692777,...</text>
</g>
<!-- el5&#45;&gt;el6 -->
<g id="edge7" class="edge">
<title>el5&#45;&gt;el6</title>
<path fill="none" stroke="black" d="M186.5,-89.11C186.5,-79.7 186.5,-67.78 186.5,-56.75"/>
<polygon fill="black" stroke="black" points="190,-56.56 186.5,-46.56 183,-56.56 190,-56.56"/>
</g>
</g>
</svg>
